<mxfile host="app.diagrams.net" modified="2021-10-30T14:52:42.452Z" agent="5.0 (Macintosh; Intel Mac OS X 10_15_7) AppleWebKit/537.36 (KHTML, like Gecko) Chrome/93.0.4577.82 Safari/537.36" etag="slIOF0Fnw7XXySV-C2F7" version="15.5.8" type="github">
  <diagram id="OMkTSygLCqqMki3EPGK_" name="Page-1">
    <mxGraphModel dx="1164" dy="682" grid="1" gridSize="10" guides="1" tooltips="1" connect="1" arrows="1" fold="1" page="1" pageScale="1" pageWidth="827" pageHeight="1169" math="0" shadow="0">
      <root>
        <mxCell id="0" />
        <mxCell id="1" parent="0" />
        <mxCell id="2hQIRXdBvStlvisrzFkW-1" value="&lt;div style=&quot;font-size: 18px&quot;&gt;&lt;font style=&quot;font-size: 18px&quot;&gt;每个&lt;u&gt;微信号&lt;/u&gt;可以创建一个或多个&lt;u&gt;视频号&lt;/u&gt;，&lt;/font&gt;通过视频号可以发布&lt;u&gt;视频内容&lt;/u&gt;，或通过视频号进行&lt;u&gt;直播，&lt;/u&gt;可以通过&lt;u&gt;视频号身份&lt;/u&gt;或&lt;u&gt;微信身份&lt;/u&gt;对&lt;u&gt;视频内容&lt;/u&gt;进行点&lt;u&gt;赞&lt;/u&gt;、&lt;u&gt;评论&lt;/u&gt;。&lt;/div&gt;" style="shape=note2;boundedLbl=1;whiteSpace=wrap;html=1;size=25;verticalAlign=top;align=left;" vertex="1" parent="1">
          <mxGeometry x="120" y="40" width="490" height="120" as="geometry" />
        </mxCell>
      </root>
    </mxGraphModel>
  </diagram>
</mxfile>
